<?xml version="1.0" standalone="no"?>
<!DOCTYPE svg PUBLIC "-//W3C//DTD SVG 20010904//EN"
 "http://www.w3.org/TR/2001/REC-SVG-20010904/DTD/svg10.dtd">
<svg version="1.0" xmlns="http://www.w3.org/2000/svg"
 width="526.000000pt" height="526.000000pt" viewBox="0 0 526.000000 526.000000"
 preserveAspectRatio="xMidYMid meet">
<metadata>
Created by potrace 1.14, written by Peter Selinger 2001-2017
</metadata>
<g transform="translate(0.000000,526.000000) scale(0.100000,-0.100000)"
fill="#000000" stroke="none">
<path d="M2486 4898 c7 -20 -11 -25 -19 -5 -4 9 -6 9 -6 0 -1 -7 -8 -10 -18
-6 -9 4 -14 2 -10 -3 3 -5 -3 -10 -13 -10 -10 0 -17 3 -14 7 2 4 -8 5 -23 3
-16 -3 -41 -5 -56 -4 -20 0 -26 -3 -21 -12 6 -10 4 -10 -8 0 -14 11 -18 10
-27 -5 -6 -10 -11 -13 -11 -7 0 6 -7 11 -15 11 -8 0 -15 -5 -15 -11 0 -6 -5
-4 -10 4 -6 10 -10 11 -10 3 0 -7 -11 -13 -24 -13 -14 0 -28 -5 -31 -10 -4 -7
-13 -6 -27 1 -15 8 -19 8 -14 0 4 -6 0 -11 -8 -11 -9 0 -16 -4 -16 -9 0 -4
-18 -7 -40 -5 -29 2 -42 -2 -50 -14 -6 -11 -10 -12 -10 -4 0 7 -5 10 -10 7 -6
-4 -7 -11 -4 -17 4 -7 0 -7 -12 0 -15 8 -25 5 -43 -9 -13 -10 -34 -19 -48 -19
-13 0 -22 -4 -19 -9 3 -4 -6 -7 -20 -5 -19 2 -24 -1 -20 -12 3 -9 1 -12 -4 -9
-16 10 -51 -5 -43 -18 4 -8 1 -8 -9 1 -13 10 -17 10 -22 -5 -6 -15 -8 -15 -16
-3 -7 10 -10 11 -10 3 0 -7 -5 -13 -11 -13 -7 0 -18 -8 -25 -17 -13 -17 -14
-17 -8 2 4 15 2 14 -9 -4 -11 -18 -16 -20 -20 -10 -4 10 -8 7 -13 -9 -5 -17
-9 -20 -15 -11 -6 11 -9 10 -15 -4 -3 -9 -10 -17 -16 -17 -5 0 -6 6 -3 13 4 6
-1 3 -9 -7 -9 -11 -16 -16 -16 -11 0 5 -6 1 -13 -10 -8 -10 -18 -16 -23 -13
-9 4 -54 -37 -53 -48 0 -3 -3 -9 -7 -12 -4 -4 -4 -2 0 5 3 6 2 14 -4 18 -5 3
-10 -2 -10 -11 0 -10 -3 -15 -6 -12 -3 4 -14 -2 -25 -13 -11 -11 -24 -17 -29
-14 -5 3 -12 0 -16 -6 -5 -8 -3 -9 6 -4 9 5 11 4 6 -3 -4 -7 -15 -12 -26 -12
-10 0 -20 -7 -24 -15 -3 -8 -13 -15 -23 -15 -13 0 -14 -3 -5 -8 8 -6 1 -13
-23 -22 -27 -11 -32 -16 -23 -27 8 -11 7 -12 -6 -7 -9 4 -16 1 -16 -6 0 -7 -7
-10 -16 -6 -8 3 -12 2 -9 -4 3 -6 1 -10 -5 -10 -7 0 -9 -7 -6 -16 6 -15 4 -15
-11 -3 -15 12 -16 12 -10 -4 4 -11 3 -16 -3 -12 -6 3 -10 1 -10 -5 0 -6 -5 -8
-12 -4 -7 5 -9 2 -5 -9 4 -10 2 -14 -7 -11 -16 6 -50 -31 -41 -45 4 -7 0 -8
-10 -5 -11 5 -18 0 -22 -15 -3 -11 -9 -18 -14 -15 -5 3 -12 -2 -15 -10 -3 -9
-11 -13 -18 -9 -6 4 -4 -2 4 -12 14 -17 13 -18 -2 -12 -18 6 -52 -29 -42 -45
3 -4 -3 -5 -13 -1 -16 6 -17 5 -3 -12 14 -17 13 -18 -2 -12 -10 3 -18 2 -18
-4 0 -6 -5 -7 -12 -3 -6 4 -8 3 -4 -4 3 -6 2 -13 -4 -17 -6 -4 -7 -12 -4 -18
4 -7 4 -9 0 -5 -11 10 -57 -42 -49 -56 3 -6 3 -8 -2 -4 -10 10 -38 -19 -30
-32 4 -6 3 -10 -2 -9 -23 4 -31 -3 -29 -25 2 -18 -1 -23 -12 -18 -9 3 -13 1
-9 -5 4 -6 0 -14 -9 -17 -9 -4 -14 -9 -11 -12 9 -9 -17 -33 -28 -26 -5 3 -4
-1 3 -10 10 -13 10 -18 1 -24 -8 -5 -9 -3 -4 6 6 9 4 11 -4 5 -7 -4 -11 -16
-8 -26 3 -10 0 -22 -5 -26 -7 -3 -8 -1 -4 5 4 7 4 12 -1 12 -13 -1 -44 -70
-37 -82 4 -7 2 -8 -5 -4 -6 4 -14 0 -18 -11 -4 -10 -10 -20 -15 -23 -4 -3 -9
-17 -12 -30 -2 -14 -9 -24 -15 -23 -5 2 -8 -3 -5 -11 3 -8 0 -17 -6 -21 -8 -5
-7 -11 2 -23 7 -9 8 -13 3 -10 -6 4 -17 3 -25 -3 -13 -7 -13 -9 0 -9 12 -1 12
-2 -2 -10 -10 -6 -15 -19 -13 -30 3 -13 0 -18 -7 -14 -7 5 -9 1 -5 -9 3 -10 2
-17 -4 -17 -6 0 -7 -4 -4 -10 3 -5 2 -10 -3 -10 -5 0 -12 -9 -15 -20 -3 -13
-1 -18 6 -13 7 3 3 -3 -7 -15 -13 -15 -15 -22 -6 -22 7 0 3 -9 -10 -20 -13
-11 -17 -20 -10 -20 10 0 10 -3 1 -14 -9 -11 -9 -15 1 -19 8 -3 6 -6 -5 -6
-10 -1 -16 -5 -12 -10 3 -5 1 -13 -5 -16 -8 -5 -7 -11 1 -21 9 -11 9 -14 0
-14 -7 0 -9 -4 -6 -10 3 -5 1 -10 -6 -10 -7 0 -9 -3 -6 -6 3 -4 2 -15 -4 -25
-7 -14 -6 -19 3 -19 9 0 9 -3 1 -11 -6 -6 -9 -18 -6 -27 4 -9 2 -13 -4 -9 -7
5 -9 -1 -5 -15 4 -16 2 -19 -9 -13 -12 7 -12 6 0 -9 13 -15 13 -19 0 -27 -11
-7 -11 -9 0 -9 10 0 11 -3 2 -13 -7 -10 -7 -17 0 -24 8 -8 7 -13 -2 -18 -8 -6
-10 -4 -4 5 5 9 4 11 -4 6 -9 -6 -9 -11 1 -24 10 -12 10 -14 1 -8 -7 4 -13 2
-13 -3 0 -6 6 -11 13 -11 6 0 4 -5 -6 -11 -13 -8 -15 -15 -8 -28 7 -12 6 -22
-2 -31 -9 -10 -9 -11 1 -6 15 9 16 -6 0 -22 -9 -9 -9 -12 1 -12 11 0 11 -3 0
-17 -12 -15 -12 -16 1 -8 13 8 13 7 1 -8 -11 -14 -11 -17 0 -17 11 0 11 -2 -1
-10 -12 -8 -12 -10 -1 -10 11 0 11 -3 0 -17 -11 -13 -11 -17 -1 -21 10 -3 10
-7 1 -18 -8 -10 -8 -14 0 -14 8 0 7 -6 -1 -20 -11 -17 -10 -22 1 -29 11 -7 11
-9 0 -14 -11 -4 -11 -6 -1 -6 8 -1 10 -6 6 -13 -9 -15 -12 -58 -4 -58 9 0 6
-33 -5 -49 -5 -9 -4 -12 2 -8 6 4 13 -6 15 -24 3 -16 1 -32 -3 -35 -5 -2 -6
-11 -3 -19 4 -8 9 -13 13 -10 4 2 8 -2 8 -10 0 -8 -5 -12 -10 -8 -5 3 -4 -4 2
-16 9 -16 9 -21 -1 -22 -7 0 -4 -4 7 -9 11 -5 15 -9 8 -9 -8 -1 -9 -10 -4 -28
5 -16 7 -36 5 -45 -1 -10 1 -18 6 -18 4 0 11 -7 14 -16 4 -10 2 -13 -6 -8 -8
5 -9 2 -5 -10 4 -10 7 -20 7 -22 0 -3 6 -2 13 2 8 5 8 2 -2 -9 -8 -10 -9 -17
-3 -17 10 0 12 -7 13 -57 0 -13 4 -23 10 -23 5 0 9 -12 9 -26 0 -14 4 -23 8
-20 5 3 9 -1 9 -9 0 -8 -5 -11 -10 -8 -5 3 -7 0 -5 -8 3 -8 10 -13 16 -12 5 1
8 -7 5 -17 -3 -13 0 -20 8 -20 11 0 11 -2 -1 -10 -10 -6 -11 -10 -2 -10 6 0
12 -9 12 -20 0 -11 6 -20 13 -20 9 0 8 -3 -2 -9 -8 -5 -9 -10 -2 -12 6 -2 12
-15 13 -29 2 -14 6 -27 10 -30 3 -3 8 -14 10 -25 1 -11 9 -26 16 -34 8 -8 12
-25 9 -38 -3 -19 -2 -21 9 -12 13 11 19 2 15 -23 0 -5 5 -8 12 -8 8 0 7 -4 -3
-10 -12 -8 -10 -10 10 -11 14 0 19 -3 13 -6 -9 -3 -10 -10 -3 -22 5 -10 6 -22
2 -26 -4 -5 -2 -5 5 -1 13 7 37 -27 26 -38 -3 -3 -1 -6 6 -6 7 0 9 -4 6 -10
-3 -5 0 -10 8 -10 9 0 14 -9 13 -22 -1 -14 8 -27 21 -34 13 -6 20 -14 16 -17
-3 -4 -1 -7 5 -7 7 0 11 -6 9 -12 -1 -7 3 -12 8 -11 6 1 12 -8 12 -20 1 -12 7
-23 13 -25 5 -2 10 -10 10 -18 0 -9 4 -13 8 -10 4 2 14 -9 21 -25 8 -18 17
-26 24 -22 7 4 6 -1 -2 -10 -8 -10 -11 -20 -7 -24 3 -3 6 -1 6 5 0 7 5 12 11
12 6 0 8 -7 5 -16 -3 -8 -2 -12 4 -9 9 6 15 -9 11 -29 -1 -5 6 -3 15 5 12 9
15 9 10 2 -4 -7 -2 -13 3 -13 6 0 11 -7 11 -15 0 -8 5 -15 10 -15 6 0 10 -7
10 -15 0 -8 7 -15 16 -15 8 0 12 -4 9 -10 -5 -9 6 -14 26 -12 3 1 5 -11 3 -26
-2 -15 -1 -19 2 -9 5 16 25 25 23 10 -3 -21 3 -33 16 -33 9 0 19 -8 22 -17 10
-26 29 -43 49 -43 14 0 15 -2 3 -17 -10 -11 -10 -14 -2 -9 8 4 13 2 13 -4 0
-7 7 -10 15 -7 8 4 17 1 21 -5 5 -7 2 -8 -6 -3 -9 5 -11 4 -6 -3 4 -7 14 -12
22 -12 8 0 14 -5 14 -11 0 -5 5 -7 12 -3 7 4 8 3 4 -4 -4 -6 2 -17 13 -23 10
-7 17 -19 14 -28 -3 -10 -1 -12 4 -6 10 12 33 18 32 7 -1 -4 -1 -14 0 -22 1
-13 2 -13 11 0 8 12 10 10 10 -10 0 -18 3 -21 9 -11 7 11 10 9 15 -7 4 -13 13
-19 22 -15 7 3 14 0 14 -7 0 -6 5 -8 10 -5 6 3 10 -4 11 -17 0 -13 3 -17 6
-10 2 6 9 12 14 12 6 0 8 -4 5 -9 -3 -4 4 -8 17 -7 12 0 22 -4 22 -11 0 -6 4
-15 9 -20 5 -4 6 -3 3 3 -4 7 2 14 13 17 11 3 18 2 16 -2 -3 -4 -1 -13 5 -21
6 -10 9 -11 9 -2 0 6 5 12 11 12 6 0 9 -7 6 -14 -4 -11 -1 -13 10 -9 11 5 14
3 8 -6 -6 -10 -3 -11 12 -3 15 9 25 6 46 -12 15 -13 24 -25 22 -28 -3 -2 5 -4
18 -4 13 1 21 -4 19 -12 -1 -8 2 -11 8 -7 6 4 9 14 6 24 -4 9 2 5 12 -8 11
-13 24 -21 31 -17 6 4 11 2 11 -5 0 -8 4 -8 15 1 13 11 14 10 10 -2 -5 -11 2
-15 26 -16 18 0 36 -7 40 -14 6 -9 9 -9 9 -1 0 6 9 11 19 10 15 -1 17 -5 10
-13 -8 -9 -5 -11 12 -7 17 5 20 3 14 -7 -6 -10 -4 -11 6 -4 23 14 51 16 43 2
-5 -8 -2 -9 9 -5 10 4 21 -1 27 -11 9 -14 10 -12 4 8 -6 25 -6 25 26 -5 18
-16 30 -25 27 -19 -4 7 0 15 9 18 10 4 13 2 8 -6 -5 -7 -2 -9 8 -5 9 3 26 -2
39 -10 12 -9 19 -11 15 -5 -4 7 1 10 14 9 11 -1 20 -4 20 -7 0 -4 7 -7 15 -7
8 0 15 4 15 9 0 11 33 6 43 -7 4 -6 10 -5 16 4 6 9 10 10 16 2 5 -9 10 -9 20
-1 10 8 15 8 21 -1 5 -8 3 -9 -7 -4 -12 8 -12 6 0 -8 7 -9 19 -17 25 -17 7 0
6 4 -2 9 -10 6 -8 10 8 14 14 4 20 2 17 -7 -3 -6 3 -12 14 -12 13 0 15 4 8 12
-8 9 -5 11 10 7 12 -3 18 -10 14 -17 -4 -6 1 -5 10 2 18 15 41 7 31 -10 -4 -7
-2 -8 5 -4 6 4 8 12 5 18 -5 7 -2 8 7 2 20 -12 38 -14 45 -3 3 5 10 9 15 9 6
0 7 -6 3 -12 -6 -10 -4 -10 7 -2 18 14 50 14 42 0 -4 -6 0 -5 9 2 13 10 17 10
21 0 4 -10 6 -10 6 1 1 11 6 10 25 -3 23 -15 25 -15 21 4 -2 13 1 17 11 13 7
-3 11 -10 7 -16 -4 -6 -1 -7 8 -1 19 11 39 14 39 5 0 -4 7 -8 15 -8 8 0 15 5
15 11 0 6 5 4 10 -4 9 -13 10 -13 10 0 0 9 3 11 8 5 10 -14 42 -15 42 -1 0 6
7 2 15 -8 8 -11 15 -15 15 -8 0 7 12 10 30 8 16 -2 27 0 25 4 -3 4 2 10 10 13
9 4 12 1 9 -7 -3 -8 0 -17 7 -22 7 -4 10 -3 6 2 -3 6 -2 16 3 24 7 12 12 12
22 2 14 -14 32 -16 23 -3 -3 5 0 13 6 17 8 4 9 3 5 -4 -4 -7 -2 -12 4 -12 6 0
8 -6 5 -12 -4 -7 0 -5 8 5 9 10 21 15 31 11 9 -3 23 -1 31 6 13 11 18 10 31
-6 9 -10 13 -14 10 -9 -2 6 4 17 16 24 11 7 17 8 13 2 -7 -13 2 -13 30 -2 12
5 25 4 33 -2 7 -6 12 -6 11 -1 -4 21 2 28 11 14 6 -10 10 -11 10 -2 0 16 27
16 34 0 4 -7 4 -3 2 9 -5 27 -3 28 18 7 14 -14 16 -14 16 0 0 10 6 13 15 9 9
-3 15 -2 13 3 -2 5 1 9 7 9 5 0 9 -6 7 -13 -2 -8 4 -6 16 5 10 10 16 23 13 28
-2 6 2 5 10 -2 12 -10 21 -9 42 2 15 8 25 10 21 4 -3 -6 3 -5 15 3 12 7 21 17
21 23 0 5 5 3 10 -5 8 -12 12 -12 18 -2 5 7 22 14 37 16 17 2 32 11 36 22 4
10 8 14 8 7 1 -8 7 -8 25 0 13 7 22 15 20 19 -3 4 1 5 9 2 8 -3 17 2 21 11 3
9 11 13 17 10 5 -4 20 1 32 12 19 16 20 16 8 0 -8 -9 -11 -20 -7 -24 3 -3 6
-2 6 4 0 6 11 14 25 17 15 4 25 14 25 24 0 15 2 15 10 2 6 -10 10 -11 10 -2 0
6 10 12 23 12 18 0 19 2 7 11 -12 9 -11 10 7 6 13 -3 26 0 30 5 4 7 1 8 -8 4
-8 -4 -6 -1 4 7 11 9 14 17 7 20 -6 3 -5 4 2 3 7 -2 13 -8 13 -13 0 -6 4 -15
8 -20 5 -4 7 -1 5 7 -2 8 3 14 10 12 8 -1 11 2 7 8 -3 5 -1 10 5 10 6 0 8 4 5
10 -4 6 1 7 11 3 11 -4 15 -3 10 5 -3 6 -1 14 5 18 8 4 9 3 5 -4 -4 -7 -1 -12
9 -12 9 0 14 3 12 8 -3 4 1 13 9 20 11 10 14 10 15 0 0 -7 5 -3 11 10 7 13 17
21 25 18 7 -3 13 -2 13 3 0 4 11 14 25 21 14 7 23 15 20 18 -2 3 -13 -1 -22
-9 -16 -13 -17 -12 -4 4 7 9 18 17 23 17 15 0 38 27 30 36 -4 5 0 4 8 -2 21
-15 54 18 36 36 -8 8 -7 10 7 5 10 -4 17 -2 17 5 0 6 4 9 9 5 5 -3 12 4 16 15
4 11 11 17 17 14 8 -5 9 -1 5 11 -6 14 -3 16 14 12 11 -3 18 -3 15 0 -3 4 0
13 6 22 10 13 10 14 -2 4 -8 -7 -18 -13 -23 -13 -5 0 2 9 17 21 14 11 31 17
37 13 7 -4 6 2 -2 17 -12 23 -11 23 6 9 10 -8 16 -10 12 -4 -3 6 3 17 13 24
15 11 17 17 8 27 -8 11 -7 12 7 7 14 -6 16 -4 10 6 -6 10 -4 12 8 7 9 -3 19
-1 23 5 4 6 3 8 -3 5 -6 -4 -14 1 -17 10 -4 10 -4 14 0 11 12 -13 44 11 37 29
-4 11 -3 14 5 9 11 -7 17 6 13 28 -1 5 5 3 14 -4 13 -11 15 -10 9 3 -3 10 4
24 19 37 15 13 24 30 22 41 -2 11 0 17 6 14 8 -6 13 8 10 28 0 4 4 7 10 7 5 0
7 4 4 10 -4 6 1 7 11 3 14 -5 16 -2 12 20 -3 15 -1 24 3 21 17 -10 31 7 18 22
-10 12 -9 13 6 8 12 -5 16 -4 11 4 -3 6 -2 13 4 17 6 4 7 11 4 17 -5 7 -2 9 8
5 17 -6 19 8 5 30 -6 9 -3 11 7 7 11 -4 16 0 16 11 0 9 4 13 10 10 6 -4 7 1 3
11 -4 11 -2 15 4 11 6 -4 9 4 7 19 -1 14 0 23 3 20 11 -11 32 28 22 40 -6 8
-4 14 6 18 8 3 15 13 15 21 0 10 5 13 13 9 9 -6 9 -4 -1 8 -9 11 -9 17 -2 20
6 2 12 13 13 26 0 12 6 22 11 22 5 0 6 3 3 7 -4 3 -1 13 6 21 9 13 9 14 0 8
-9 -5 -11 -2 -7 8 3 9 11 13 18 9 6 -4 4 2 -4 12 -8 10 -10 16 -3 12 6 -4 14
-3 18 3 3 5 0 10 -7 10 -10 0 -10 2 1 9 8 5 10 14 6 21 -6 9 -4 11 5 5 9 -6
10 -2 5 15 -6 17 -4 21 6 14 10 -6 10 -3 -1 11 -12 15 -12 17 -1 10 11 -6 13
-4 8 8 -3 10 -3 17 2 17 5 0 7 14 6 31 -2 20 1 29 10 26 8 -4 10 3 7 19 -2 13
2 32 9 41 11 13 11 17 2 20 -7 3 -13 9 -13 14 0 6 4 7 10 4 6 -3 7 1 4 9 -4 9
-1 16 6 16 9 0 10 3 1 14 -9 11 -8 15 4 20 12 4 14 10 5 25 -7 14 -7 22 0 26
8 5 8 11 0 20 -8 10 -7 14 2 18 10 4 9 6 -1 6 -11 1 -10 4 4 14 14 11 15 16 5
22 -9 6 -11 4 -5 -5 5 -8 4 -11 -3 -6 -7 4 -7 14 3 32 9 18 11 34 4 50 -4 13
-6 24 -3 24 4 0 1 6 -5 14 -10 12 -8 14 11 10 13 -2 17 -2 11 2 -7 3 -13 15
-13 25 0 13 4 18 12 13 7 -4 1 8 -12 27 -16 22 -18 29 -7 20 16 -13 18 -12 13
12 -2 15 0 29 5 32 12 8 11 25 -2 25 -5 0 -7 -5 -3 -12 4 -7 3 -8 -5 -4 -6 4
-8 12 -5 18 4 6 0 15 -7 20 -11 8 -10 8 4 4 15 -5 17 -2 11 17 -3 12 -11 27
-16 34 -6 7 -5 14 3 19 7 4 9 3 5 -4 -3 -6 -3 -13 2 -16 4 -2 8 10 8 29 0 25
-4 32 -16 28 -11 -3 -11 -1 3 10 17 14 17 15 0 21 -15 6 -15 8 -3 16 12 8 12
10 1 10 -10 0 -11 3 -2 14 9 10 9 16 1 21 -8 5 -7 11 2 23 10 12 10 14 1 8 -8
-4 -13 -2 -14 6 -1 7 -2 33 -4 58 -4 60 -3 56 -21 74 -8 9 -11 16 -6 16 13 0
10 33 -4 42 -6 4 -9 19 -6 33 3 16 0 25 -8 25 -10 0 -10 3 0 15 9 10 9 15 1
15 -6 0 -11 9 -11 20 0 11 -6 20 -12 20 -9 0 -8 4 2 10 10 6 11 10 3 10 -7 0
-13 9 -13 21 0 11 -3 18 -7 16 -5 -3 -9 9 -10 26 -1 17 -6 33 -10 36 -8 6 -15
27 -16 49 0 6 -4 12 -9 12 -5 0 -7 4 -3 9 3 5 1 12 -5 16 -6 4 -7 11 -4 17 5
7 2 9 -8 5 -12 -4 -14 -1 -11 14 3 10 1 19 -5 19 -6 0 -9 9 -7 21 3 16 0 19
-12 15 -13 -5 -14 -4 -3 9 8 9 8 15 2 15 -11 0 -28 38 -24 53 1 4 -5 7 -14 7
-8 0 -12 5 -9 10 3 6 1 10 -4 10 -6 0 -11 9 -11 20 0 12 -7 20 -17 20 -15 0
-16 2 -3 10 13 8 13 10 -2 10 -12 0 -15 6 -10 22 3 14 2 19 -6 14 -7 -4 -12
-1 -12 9 0 8 -6 18 -14 21 -9 3 -12 12 -9 21 5 12 3 14 -7 8 -10 -6 -12 -4 -7
9 4 9 3 15 -2 12 -9 -6 -26 22 -23 37 1 4 -5 7 -14 7 -8 0 -12 5 -9 10 3 6 1
10 -5 10 -6 0 -8 5 -5 10 3 6 -1 10 -10 10 -9 0 -13 5 -10 10 3 6 -1 10 -11
10 -13 0 -14 3 -5 14 9 11 8 14 -6 12 -10 0 -17 5 -15 12 1 6 -6 12 -15 12
-14 0 -15 2 -4 9 11 7 9 10 -7 15 -11 4 -26 14 -34 24 -12 16 -11 16 7 2 11
-8 2 3 -20 25 -21 22 -43 39 -48 37 -5 -1 -6 7 -2 18 5 15 3 18 -9 14 -9 -3
-16 -1 -16 6 0 6 -5 8 -12 4 -8 -5 -8 -1 2 12 8 10 11 16 6 12 -4 -4 -19 6
-33 23 -14 16 -29 29 -35 29 -14 0 -58 47 -51 54 3 3 -4 3 -17 1 -19 -4 -20
-2 -8 12 8 10 8 14 1 10 -6 -4 -14 -3 -18 3 -4 6 -11 7 -17 4 -6 -4 -8 -2 -4
4 3 6 -3 17 -14 25 -11 7 -17 17 -13 21 4 4 0 4 -10 0 -11 -4 -19 0 -23 10 -3
9 -15 16 -25 16 -12 0 -16 5 -13 15 4 10 0 13 -16 10 -13 -2 -20 -2 -17 2 8 8
-15 29 -41 37 -12 4 -20 11 -17 16 3 5 0 12 -6 16 -8 4 -9 3 -5 -4 13 -21 -13
-12 -28 9 -9 13 -21 19 -30 16 -11 -4 -13 -1 -9 10 5 13 2 15 -11 10 -10 -4
-15 -3 -11 3 4 6 -7 13 -24 16 -17 4 -28 10 -25 15 3 5 -2 9 -11 9 -9 0 -24 7
-32 16 -9 9 -26 14 -40 11 -18 -3 -21 -1 -13 8 8 10 7 15 -1 21 -8 4 -9 3 -5
-4 10 -17 -3 -15 -21 4 -9 8 -22 13 -29 10 -8 -3 -14 -1 -14 4 0 6 -6 10 -14
10 -8 0 -17 6 -19 13 -4 8 -6 8 -6 -2 -1 -11 -5 -10 -17 5 -8 10 -13 12 -9 4
4 -8 -1 -6 -9 4 -9 11 -16 17 -16 13 0 -4 -12 1 -27 10 -15 10 -24 12 -20 6 5
-7 4 -13 -2 -13 -6 0 -11 4 -11 10 0 5 -3 9 -7 9 -20 -3 -34 2 -29 10 3 5 0 9
-7 8 -41 -1 -58 4 -51 16 5 8 2 8 -9 -2 -13 -11 -17 -11 -17 -1 0 8 -3 10 -7
7 -3 -4 -17 0 -29 8 -14 9 -25 11 -29 5 -4 -7 -14 -5 -27 4 -11 8 -27 12 -34
9 -8 -3 -14 1 -14 8 0 11 -3 11 -10 -1 -8 -12 -10 -12 -10 -1 0 8 -7 11 -20 8
-11 -3 -18 -1 -14 4 3 5 0 9 -5 9 -6 0 -11 -6 -11 -12 0 -7 -5 -5 -11 5 -8 14
-14 15 -24 7 -9 -8 -15 -8 -20 0 -9 14 -27 13 -20 -2 4 -7 0 -5 -8 4 -10 13
-17 14 -25 6 -8 -8 -13 -7 -18 6 -5 14 -9 15 -15 4 -7 -11 -9 -11 -9 1 0 11
-3 11 -16 0 -13 -10 -17 -10 -25 2 -8 12 -10 12 -19 -1 -8 -13 -10 -13 -10 -1
0 12 -3 12 -12 3 -9 -9 -16 -8 -32 6 -11 9 -16 11 -12 5 4 -7 2 -13 -3 -13 -6
0 -11 4 -11 9 0 4 -12 6 -26 3 -21 -4 -25 -2 -19 9 7 11 6 12 -6 3 -17 -14
-57 -19 -94 -11 -11 2 -32 1 -46 -3 -19 -6 -32 -3 -43 9 -16 15 -17 15 -10 -1z
m1665 -645 c12 -16 12 -17 -1 -7 -8 6 -22 14 -30 17 -13 5 -12 6 1 6 9 1 23
-7 30 -16z m-1337 -1115 c-5 -8 -2 -9 9 -5 23 9 28 -5 10 -28 -14 -18 -15 -18
-9 -2 4 13 2 17 -6 14 -7 -2 -12 -9 -11 -14 1 -5 -4 -10 -11 -10 -7 0 -13 6
-13 13 0 7 4 11 8 8 4 -2 10 0 14 6 3 5 0 10 -7 10 -9 0 -9 3 2 10 20 13 23
12 14 -2z m1981 -778 c3 -5 1 -10 -4 -10 -6 0 -11 5 -11 10 0 6 2 10 4 10 3 0
8 -4 11 -10z m-4030 -858 c-3 -3 -11 0 -18 7 -9 10 -8 11 6 5 10 -3 15 -9 12
-12z m1265 -866 c0 -3 -4 -8 -10 -11 -5 -3 -10 -1 -10 4 0 6 5 11 10 11 6 0
10 -2 10 -4z"/>
<path d="M3650 770 c0 -5 5 -10 11 -10 5 0 7 5 4 10 -3 6 -8 10 -11 10 -2 0
-4 -4 -4 -10z"/>
<path d="M1570 744 c0 -8 5 -12 10 -9 6 4 8 11 5 16 -9 14 -15 11 -15 -7z"/>
</g>
</svg>
